first trial
nRows=26
nColumns=38

# SIMM Motion File Header:
name Sujet_07_velo_60.mvnx
datacolumns 38
datarows 26
otherdata 1
range 3.8840 4.3000
endheader
time pelvis_tilt  pelvis_list  pelvis_rotation  pelvis_tx  pelvis_ty  pelvis_tz  hip_flexion_r  hip_adduction_r  hip_rotation_r  knee_angle_r  ankle_angle_r  subtalar_angle_r  mtp_angle_r  hip_flexion_l  hip_adduction_l  hip_rotation_l  knee_angle_l  ankle_angle_l  subtalar_angle_l  mtp_angle_l  lumbar_extension  lumbar_bending  lumbar_rotation  arm_flex_r  arm_add_r  arm_rot_r  elbow_flex_r  pro_sup_r  wrist_flex_r  wrist_dev_r  arm_flex_l  arm_add_l  arm_rot_l  elbow_flex_l  pro_sup_l  wrist_flex_l  wrist_dev_l
3.8840	-25.6137	-2.1784	-53.1174	0.0000	1.2500	-0.0000	91.8513	-0.4198	-0.3775	89.5531	6.3041	-4.7195	-0.0000	51.6262	-8.6386	0.3692	46.2493	-9.0838	1.3514	0.0000	-17.9757	-1.5597	0.6762	98.1066	-2.4639	24.0916	11.6922	64.8036	-48.5063	-43.1506	91.2885	-10.7726	46.4767	9.3342	40.7924	-45.5007	-47.6357	
3.9000	-25.6481	-2.0722	-52.8332	0.0000	1.2500	-0.0000	90.7765	-0.6096	-0.8740	86.7969	7.7723	-5.5214	-0.0000	52.8584	-8.7157	0.3892	49.9244	-8.0180	1.5443	0.0000	-17.9473	-1.5626	0.5956	98.0153	-2.4945	24.1066	11.7862	64.7243	-48.5109	-43.1564	91.3409	-10.7701	46.6760	9.4298	40.7988	-45.4978	-47.5878	
3.9170	-25.6582	-1.9488	-52.5352	0.0000	1.2500	-0.0000	89.4237	-0.8305	-1.4616	83.7178	8.9687	-6.2677	0.0000	54.2443	-8.7951	0.5572	53.7407	-7.1441	1.8881	0.0000	-17.9427	-1.5736	0.5112	98.0207	-2.5326	24.0663	11.8684	64.6607	-48.4924	-43.1295	91.4805	-10.7536	46.8321	9.5140	40.8818	-45.4665	-47.5277	
3.9340	-25.6457	-1.8027	-52.2042	0.0000	1.2500	-0.0000	87.8154	-1.0842	-2.1285	80.3627	9.8548	-6.9334	0.0000	55.7847	-8.8530	0.8265	57.7146	-6.4060	2.3324	0.0000	-17.9540	-1.5897	0.4156	98.0683	-2.5697	23.9918	11.9344	64.6003	-48.4627	-43.0911	91.6835	-10.7280	46.9574	9.5861	41.0253	-45.4153	-47.4542	
3.9500	-25.6162	-1.6306	-51.8302	0.0000	1.2500	-0.0000	86.0547	-1.3633	-2.8334	76.9007	10.1609	-7.3286	0.0000	57.3888	-8.8499	1.1266	61.6665	-5.7560	2.8048	0.0000	-17.9691	-1.6062	0.3022	98.0868	-2.5806	23.8879	11.9727	64.5544	-48.4452	-43.0786	91.9016	-10.6891	47.0129	9.6278	41.2386	-45.3605	-47.3670	
3.9670	-25.5678	-1.4127	-51.3932	0.0000	1.2500	-0.0000	84.1314	-1.6842	-3.6427	73.3312	9.7767	-7.3519	0.0000	59.0274	-8.7640	1.4385	65.5675	-5.1872	3.3021	-0.0000	-17.9839	-1.6277	0.1603	98.0358	-2.5386	23.7285	11.9718	64.5395	-48.4525	-43.1103	92.1223	-10.6345	46.9703	9.6305	41.5417	-45.2966	-47.2514	
3.9840	-25.5012	-1.1697	-50.9138	0.0000	1.2500	-0.0000	82.0558	-2.0196	-4.5029	69.6484	8.8053	-7.1206	0.0000	60.7275	-8.6127	1.7704	69.4450	-4.7072	3.8293	-0.0000	-18.0027	-1.6496	0.0006	97.9562	-2.4699	23.5400	11.9433	64.5388	-48.4718	-43.1678	92.3584	-10.5667	46.8582	9.6037	41.9149	-45.2291	-47.1218	
4.0000	-25.4272	-0.9599	-50.4441	0.0000	1.2500	-0.0000	79.9618	-2.3132	-5.1836	66.0214	7.3011	-6.7784	0.0000	62.4815	-8.4199	2.0937	73.2031	-4.2909	4.3298	0.0000	-18.0262	-1.6531	-0.1519	97.8985	-2.4292	23.4048	11.9095	64.5130	-48.4887	-43.2339	92.5991	-10.4900	46.7225	9.5555	42.3074	-45.1904	-47.0211	
4.0170	-25.3436	-0.8082	-50.0009	0.0000	1.2500	-0.0000	77.9065	-2.5562	-5.5818	62.5212	5.1467	-6.3245	0.0000	64.2913	-8.1967	2.3976	76.8370	-3.9525	4.8220	0.0000	-18.0560	-1.6309	-0.2854	97.8818	-2.4409	23.3766	11.8741	64.4302	-48.4999	-43.3073	92.8438	-10.3872	46.5383	9.4620	42.7479	-45.1920	-46.9686	
4.0340	-25.2535	-0.6898	-49.5675	0.0000	1.2500	-0.0000	75.8312	-2.7763	-5.7950	59.0857	2.4606	-5.7635	0.0000	66.1531	-7.9295	2.6900	80.3504	-3.6796	5.2921	-0.0000	-18.0900	-1.5903	-0.4117	97.8868	-2.4812	23.4016	11.8330	64.3223	-48.5087	-43.3893	93.0934	-10.2756	46.3304	9.3466	43.2075	-45.2224	-46.9449	
4.0500	-25.1759	-0.5866	-49.1448	0.0000	1.2500	-0.0000	73.6954	-2.9823	-5.8873	55.6909	-0.3465	-5.2386	0.0000	68.0505	-7.6071	2.9736	83.6597	-3.4085	5.6347	0.0000	-18.1226	-1.5349	-0.5405	97.9059	-2.5329	23.4008	11.7962	64.2460	-48.5101	-43.4662	93.3394	-10.2116	46.2189	9.2874	43.5498	-45.2789	-46.9349	
4.0670	-25.1189	-0.5003	-48.7309	0.0000	1.2500	-0.0000	71.4627	-3.1741	-5.8751	52.2834	-3.2256	-4.7705	-0.0000	69.9928	-7.2119	3.2246	86.7423	-3.1584	5.7891	0.0000	-18.1570	-1.4603	-0.6777	97.9449	-2.5925	23.3339	11.7649	64.2360	-48.4991	-43.5354	93.6180	-10.2522	46.2721	9.3342	43.7146	-45.3676	-46.9320	
4.0840	-25.0748	-0.4287	-48.3277	0.0000	1.2500	-0.0000	69.1684	-3.3623	-5.7415	48.9178	-6.2270	-4.3207	-0.0000	71.9687	-6.7618	3.4606	89.6218	-2.9127	5.8167	0.0000	-18.1897	-1.3709	-0.8175	97.9981	-2.6635	23.2412	11.7386	64.2581	-48.4807	-43.5996	93.8929	-10.3405	46.4221	9.4369	43.7622	-45.4824	-46.9428	
4.1000	-25.0370	-0.3484	-47.9412	0.0000	1.2500	-0.0000	66.8799	-3.5707	-5.5029	45.7304	-9.0904	-3.9405	0.0000	73.9324	-6.2981	3.7486	92.2837	-2.5534	5.7956	-0.0000	-18.2052	-1.2835	-0.9520	98.0400	-2.7384	23.1644	11.7255	64.2660	-48.4647	-43.6524	94.0460	-10.3624	46.5838	9.5232	43.7355	-45.6032	-46.9715	
4.1170	-24.9972	-0.2526	-47.5885	0.0000	1.2500	-0.0000	64.5677	-3.8218	-5.1503	42.6969	-11.7776	-3.6398	0.0000	75.8842	-5.8454	4.1264	94.7605	-2.0470	5.7754	-0.0000	-18.1964	-1.2069	-1.0728	98.0699	-2.8144	23.1118	11.7264	64.2434	-48.4544	-43.6879	94.0085	-10.2622	46.7714	9.5581	43.5892	-45.7344	-47.0264	
4.1340	-24.9634	-0.1483	-47.2525	0.0000	1.2500	-0.0000	62.2613	-4.1089	-4.6946	39.8379	-14.3248	-3.4000	-0.0000	77.8243	-5.3750	4.5577	97.0198	-1.4272	5.7092	0.0000	-18.1705	-1.1328	-1.1886	98.0887	-2.8945	23.0751	11.7405	64.2065	-48.4467	-43.7121	93.8491	-10.0961	46.9707	9.5775	43.3685	-45.8718	-47.0995	
4.1500	-24.9547	-0.0327	-46.8879	0.0000	1.2500	-0.0000	60.1169	-4.4068	-4.1816	37.3554	-16.5820	-3.2380	0.0000	79.7071	-4.8480	4.9984	98.9496	-0.6761	5.5294	0.0000	-18.1333	-1.0528	-1.3176	98.0742	-2.9810	23.0713	11.7735	64.1582	-48.4420	-43.7370	93.6554	-9.9170	47.0534	9.6146	43.2510	-45.9826	-47.1710	
4.1670	-24.9701	0.0960	-46.4731	0.0000	1.2500	-0.0000	58.1605	-4.7057	-3.5450	35.2941	-18.5169	-3.1737	0.0000	81.5340	-4.2398	5.4345	100.5288	0.2225	5.2275	-0.0000	-18.0896	-0.9627	-1.4713	97.9933	-3.0688	23.1280	11.8491	64.0894	-48.4438	-43.7649	93.4751	-9.7458	46.9319	9.6754	43.3432	-46.0590	-47.2421	
4.1840	-25.0099	0.2368	-46.0291	0.0000	1.2500	-0.0000	56.3651	-5.0194	-2.8491	33.6039	-20.1589	-3.1821	0.0000	83.3025	-3.5757	5.8744	101.7778	1.2504	4.8117	-0.0000	-18.0345	-0.8668	-1.6384	97.8793	-3.1632	23.2176	11.9436	64.0092	-48.4487	-43.7934	93.2606	-9.5610	46.6942	9.7522	43.5383	-46.1088	-47.3115	
4.2000	-25.0941	0.3865	-45.5758	0.0000	1.2500	-0.0000	54.8074	-5.3404	-2.3310	32.3507	-21.4525	-3.2205	-0.0000	84.9622	-2.8961	6.3099	102.6458	2.3745	4.2377	-0.0000	-17.9597	-0.7696	-1.8029	97.8090	-3.2815	23.2737	11.9916	63.9471	-48.4473	-43.8280	92.9567	-9.3515	46.4752	9.8573	43.6944	-46.1225	-47.3552	
4.2170	-25.2394	0.5633	-45.1044	0.0000	1.2500	-0.0000	53.5000	-5.6702	-2.0584	31.5414	-22.3820	-3.2858	0.0000	86.5269	-2.1879	6.7958	103.1232	3.6392	3.4236	-0.0000	-17.8593	-0.6755	-1.9613	97.8337	-3.4520	23.2442	11.9811	63.9419	-48.4311	-43.8690	92.5004	-9.1180	46.3290	10.0164	43.7587	-46.0682	-47.3512	
4.2340	-25.4286	0.7508	-44.6224	0.0000	1.2500	-0.0000	52.4305	-5.9912	-1.9571	31.1770	-22.9636	-3.3889	0.0000	87.9838	-1.4675	7.2830	103.2175	4.9992	2.4478	0.0000	-17.7391	-0.5804	-2.1172	97.9019	-3.6461	23.1814	11.9238	63.9553	-48.4086	-43.9162	91.9551	-8.8593	46.2043	10.2044	43.7838	-45.9775	-47.3208	
4.2500	-25.6301	0.8955	-44.1740	0.0000	1.2500	-0.0000	51.6382	-6.2591	-2.0452	31.3185	-23.1914	-3.5170	0.0000	89.2445	-0.8264	7.6193	102.9054	6.2863	1.5123	0.0000	-17.6093	-0.4757	-2.2661	97.9361	-3.7955	23.1763	11.7900	63.9010	-48.3965	-43.9742	91.4550	-8.5614	46.0768	10.3586	43.7860	-45.9369	-47.3046	
4.2670	-25.8502	0.9821	-43.7502	0.0000	1.2500	-0.0000	51.1400	-6.4712	-2.3726	31.9900	-23.0049	-3.7207	-0.0000	90.3134	-0.2773	7.7726	102.1626	7.4761	0.6606	0.0000	-17.4606	-0.3513	-2.4171	97.8661	-3.8644	23.3036	11.5263	63.6905	-48.4082	-44.0628	91.0597	-8.1647	45.9016	10.4406	43.7922	-45.9942	-47.3182	
4.2840	-26.0837	1.0255	-43.3606	0.0000	1.2500	-0.0000	50.9212	-6.6285	-2.8782	33.1690	-22.4659	-3.9634	0.0000	91.1884	0.1834	7.7915	101.0161	8.5916	-0.1336	0.0000	-17.3023	-0.2172	-2.5615	97.7622	-3.8883	23.4884	11.1849	63.4109	-48.4304	-44.1626	90.7109	-7.7283	45.7231	10.4890	43.7759	-46.1020	-47.3471	
4.3000	-26.2836	1.0154	-43.0785	0.0000	1.2500	-0.0000	50.9751	-6.6981	-3.4110	34.8453	-21.7527	-4.1035	0.0000	91.7725	0.4854	7.6532	99.5224	9.5408	-0.7767	-0.0000	-17.1733	-0.0953	-2.6674	97.7580	-3.9068	23.5975	10.8969	63.2406	-48.4391	-44.2199	90.3648	-7.4158	45.6491	10.5567	43.6737	-46.2045	-47.3878	
